<?xml version='1.0' encoding='utf-8'?>
<svg xmlns="http://www.w3.org/2000/svg" enable-background="new 0 0 5000 4036.5613" version="1.1" viewBox="0 0 5e3 4036.6"> <path d="m4999.9 778.21c-10.963-3.4456-51.474 0.647-63.467 3.7916l-1038.4 357.71c-3.5522-10.064 1.9331-35.673 2.918-47.201 34.199-15.837 944.57-304.43 960.04-308.12 18.669-4.4592 40.182-3.2722 59.305-3.3464-11.664-0.4905-23.162-3.3135-34.618-5.6089l112.76-279.79 0.7002-2.5347c-27.283 10.143-56.295 32.335-82.671 46.042-363.2 187.15-125.25 69.769-1008.6 493.52 0.4121-8.3248-0.2061-18.83 2.4893-26.685 3.0295-8.8212 222.61-101.63 1083.3-515.71l5.3979 2.8311 0.8657-5.4067-104.06 11.646c4.8628 4.657 14.177 2.918 20.936 2.9138l-1004.3 468.5-2.1226-36.073 2.5676-2.8684c7.01-5.5511 19.37-9.7837 27.538-13.798 104.96-50.405 7.7551-4.9595 531.47-246.81 369.8-161.8 390.69-177.19 418.47-171.52l-8.8198-6.54c2.061-20.924 14.507-45.857 21.348-66.072 62.494-177.94 64.148-181.41 78.427-225.71l-0.6187-1.9456c-44.22 4.7549-97.838 36.631-130.52 65.326l97.674-264.74c-1120 971.13-1056 912.49-1069.4 914.37l0.0908 10.633c5.5469-2.3615 7.3604-3.8617 11.156-8.4899 13.893-16.942 47.304-30.41 66.492-42.927 256.1-168.98 146.16-94.847 489.75-331.12 537.18-354.67 337.56-223.97 434.54-277.95 25.824-14.362 52.14-36.348 79.235-46.926 0.0176 0.0225 0.0347 0.0452 0.0522 0.0676-18.97 21.059-45.009 34.084-68.985 50.228-752.75 523.9-667.55 472.3-945.95 623.84-51.502 25.805-47.571 23.513-47.983 24.146-2.2056 3.3627-1.7273 24.876-2.4197 30.917-48.456 388.22-77.259 549.22-283.85 812.14-50.683 64.501-103.38 125.79-164.03 181.19-19.765 18.055-39.333 37.676-61.068 53.3-34.457 24.769-64.798 43.738-106.83 52.492-1.3516 0.2804-12.347 2.2379-12.8 2.7489-0.2947 0.3298 1.1885-10.442-16.048 150.77l334.87 564.94c-6.2302-128.11-2.8569-76.108-14.202-224.93-23.33-50.827-57.442-100.71-86.492-148.69-197.27-330.65-186-306.26-186.69-317.16 6.9033-5.176 12.364-7.3481 20.759-9.2314 27.637 36.518 50.518 82.297 73.832 121.77 241.29 406.04 210.84 359.37 227.03 382.4 51.272-19.959 100.77-44.295 150.51-67.741 31.264-14.737 67.72-38.715 101.79-43.404l-476.9-437.72 22.519-17.078 472.65 438.53c270.41-182.53 239.67-159.14 244.39-164.07l-664.57-312.82 28.803-30.604c61.44 25.424 119.93 61.184 178.54 92.703 437.54 233.83 458.04 246.15 474.67 244.5l0.8652-2.9548c-40.795-31.566-419.75-240.73-631.75-358.97l35.398-38.702c71.38 32.327 431.04 268.86 603.81 380.62l212.49-223.96c-392.4-87.142-768.43-170.62-790.43-183.81l28.54-32.648c82.169 17.214 163.81 45.053 244.59 68.153 446.61 122.43 342.67 93.837 488.7 134.27 21.223 5.5236 28.76 10.95 48.177 4.2655l-0.8237-3.8823-760.09-231.39 34.536-45.758 725.6 261.36c149.3-194.9 160.08-211.7 191.68-241.5l-900.81-46.627 29.743-41.295c71.815 1.9915 833.24 81.218 868.64 76.972 3.4199-0.4082 5.481-1.8215 8.3657-3.5566l3.0493-5.1515-2.2661-3.0209-2.4321 1.0386c-11.456 3.2267-204.66-25.383-232.07-28.684l-623.26-71.858c10.352-16.501 20.342-36.333 33.856-50.3l822.17 136.37 124.54-227.55c8.1602-14.502 26.788-31.42 31.527-45.704l-961.54 102.63c4.0225-8.399 16.699-41.068 23.066-45.234 9.9983-6.551 911.63-43.565 947.58-66.208l-2.2661-2.9176c-34.619-11.185-84.115-1.7103-120.26 0.1443-453.83 21.654-333.08 10.675-810.82 35.438 4.7683-15.137 8.6794-31.082 18.612-43.768 978.09-23.262 778.06-8.0612 852.92 1.5126l1.3604-2.3451-27.736-10.105 244.18-317.1-1.4429-2.5059c-36.18 0.4302-234.21 45.628-301.47 60.425-628.28 127.37-601.25 129.75-741.62 149.88l11.044-46.553c534.41-99.442 112.56-21.601 812.26-145.22 42.201-7.6489 87.247-20.033 129.86-23.372 14.012-1.0962 28.23 0.6428 42.243 0.7791l-28.519-7.5089c114.35-218.18 134.85-260.01 164.07-302.51-67.089 36.86-1025.1 409.72-1109.4 433.09-1.2363-12.009 3.0459-27.604 4.9827-39.642l1109-397.23zm-104.02 328.24c-12.684 12.898-16.869 14.12-640.11 188.1-221.11 59.974-128.08 37.902-412.95 96.214l13.472-48.198c930.66-188.46 1011.2-233.22 1039.6-236.12z"/> <path d="m3269.5 2015.4 2.3491 3.0249c56.199-0.6896 108.68-57.299 193.84-137.71 347.84-357.48 357.4-594.42 402.98-952.23-63.88 96.05-460.31 822.54-516.81 925.59-80.217 149.66-80.668 147.35-82.367 161.32z"/> <path d="m3250.1 1991.8 550.85-1003.9c-16.899 4.6267 39.206-21.988-900.57 648.12 212.11 211.93 131.84 130.08 349.72 355.79z"/> <path d="m2330.8 1127.1-215.49-30.699-158.47 128.98c4.4357 3.1221-10.505-9.212 126.27 105.33 72.62-59.531 21.496-17.528 247.7-203.61zm-214.6 57.433c24.23-11.421 48.883 7.9714 46.802 33.76-2.1548 26.705-42.033 58.14-64.043 31.375-15.264-18.562-6.6121-53.892 17.241-65.135z"/> <path d="m2110.1 1345.2c9.9595 5.9948-70.22-17.974 557.35 92.637-2.7358-5.2014 22.361 21.06-310.32-301.43l-190.81 160.23c-16.979 14.441-43.339 30.769-56.218 48.569z"/> <path d="m2496.7 2355.2c-4.1172-5.8398-10.608-18.381-15.888-22.593-5.4346-4.333-177.32-0.5259-459.51-110.6-50.341-19.633-98.988-43.953-146.79-69.064-201.24-105.71-383.37-256.13-513.96-443.29-27.444-39.325-56.609-81.163-75.876-125.04l-1284.7-333.74c11.889 15.769-11.394-13.356 157.02 178.49 19.974 22.477 44.279 44.847 58.745 71.285l-161.98 37.025c7.7773 4.0587 9.5254 5.4399 16.515 4.5336 38.078-4.9332 77.428-5.23 115.76-8.5436 96.369-8.335 1.4033-19.678 347.37 27.444 758.84 105.51 704.98 103.51 746.97 102.89-54.734-14.404-111.7-22.728-167.05-34.915-404.21-90.695-646.13-138.17-845.42-214.96-29.818-11.49-64.502-20.316-88.291-39.77 43.19 2.4186 4.2365 14.426 1087.1 250.09 8.4402 9.7178 45.016 64.617 50.23 73.061l-0.4449 2.0482c-1260.8-175.43-1040.6-153.99-1195.7-155.51-18.137-0.1814-58.9 4.4756-72.568-4.4551l-3.8636 1.0137c13.445 13.459 11.709 10.279 152.47 93.457l235.9 142.36-93 20.174c34.058 1.1086 65.577-11.898 98.716-17.338 49.15-8.0613 703.06-52.763 751.99-56.148 47.295-2.3245 95.773-5.7205 142.97-0.8572l48.466 63.714c-820.76 15.139-633.51 12.207-922.26 15.442-59.712 0.4409-119.87-4.5336-178.31 8.9883 75.351 43.17 143.53 98.683 213.82 149.49 56.885 41.118 116.78 79.762 171.55 123.58-24.633 17.746-54.326 30.176-80.183 46.817 33.588-0.4617 72.909-11.56 106.23-17.462 617.41-106.14 257.1-41.455 854.55-147.48l56.358 44.369c-23.653 3.0128-993.34 126.9-1027.4 127.72l387.78 187.01-86.48 67.481 849.26-294.47 53.473 35.035c-675.24 200.33-502.78 143.8-806.45 233.5-25.333 8.1106-60.73 24.954-86.529 24.744-5.3658-0.0457-2.7408-0.6514-7.2081 1.2112 7.8922 10.307 349.61 133.94 377.4 141.89 28.606-25.346 61.328-46.867 92.897-68.351 224.48-152.33 349.02-237.96 471.65-307.57l62.828 32.475c-11.725 12.887-43.566 24.303-59.466 32.76-558.16 304.54-460.41 263.36-563.98 315.11-19.764 9.8718-28.242 40.71-62.927 70.592 30.764 15.266 53.445 18.577 180.09 49.092 63.78 15.587 127.85 34.293 192.63 44.95 35.213-44.204 53.411-60.179 452.7-449.77l55.69 20.013c-71.59 53.73-74.943 61.098-413.03 352.04-54.487 47.574-97.076 79.053-109.85 110.71l3.4988 3.4082c7.105-0.9272 11.535-4.0801 17.214-8.1765 65.269-47.027 503.06-428.97 535.16-446.25 4.3809-2.3574 39.828 11.107 47.093 13.414l-583.4 445.78 303.02 128.63 4.7848-4.6531c1.0144-10.391 2.6952-10.935 39.753-79.346 217.49-385.62 156.86-280.85 275.36-477.74l50.407 12.908c-37.646 46.722-78.883 112.05-318.56 481.73-12.318 19.456-36.613 48.437-40.342 70.036 7.9788 3.7502 9.689 3.7173 18.521 2.8354 27.173-56.888 322.14-477.16 364.32-549.63l38.286 9.1616-392.77 545.27 312.4 54.598 126.39-591.73 45.222 8.1316-102.37 358.99c-8.939 30.724-65.362 209.59-61.773 226.95l9.1616 1.5413c10.365-10.076 28.914-82.548 34.396-99.87 163.15-531.68 145.7-481.16 149.71-486.44l38.496 5.1143-207.62 581.29 312.13-24.158-35.542-501.99-42.993-60.512zm-2171.5-533.51c14.078-3.4208 39.658 0.9313 55.171 1.0508 73.513-0.1174 1025.3-7.6949 1025.7-7.6985l38.946 43.508c-855.6-21.03-1078.6-23.921-1119.9-36.86zm328.03 276.87c23.359-13.04 53.011-19.708 78.662-27.381 103.06-29.609 639.21-176.56 736.95-186.79l54.672 54.269c-0.659 0.1211-869.35 159.83-870.28 159.91zm342.56 229.53c-13.51 4.8879-34.705 17.136-48.507 17.495 20.909-22.027 32.032-23.523 240.21-117.6 363.73-162.58 381.05-172.23 447.5-195.05 36.227 27.545 23.046 17.162 57.384 45.436-162.5 47.504-318.6 107.72-696.59 249.72zm267.96 248.1-51.421 19.864 706.57-385.73c14.173-1.9084 42.123 15.5 56.996 21.138-3.8393 4.3777 44.667-20.435-712.15 344.73z"/> <path d="m1821.7 1374.6c221.43-42.012 211.11-39.313 231.25-45.358l-103.55-98.914-218.64 168.13c10.422-2.7349 82.187-21.566 90.935-23.862z"/> <path d="m2663.7 1463.7c-598.43-100.49-548.98-92.674-564.23-93.189l225.46 580.72c175.25-253.1 98.891-143.18 338.77-487.53z"/> <path d="m3209.8 2187.2-524.03-711.41c-356.39 515.34-329.8 479.87-344.6 495.34 717.5 178.88 524.15 130.81 868.63 216.07z"/> <path d="m3228.2 2163.9c2.3745-14.517 0.2578 8.9565 11.527-143.06l-507.85-523.21c35.982 50.844 489.26 663.08 496.33 666.27z"/> <path d="m1566.3 1899.6c247.76 232.54 559.55 358.97 893.45 403.43l-41.303-58.451c-6.5361-10.159-12.677-27.831-21.299-35.785-16.323-15.063-1031.6-596.54-1092.9-628.12 10.043 18.472 26.714 35.678 39.036 52.908 82.479 115.96 103.5 153.9 222.97 266.02z"/> <polygon points="2203.8 1728.4 1351.8 1585.5 2378.2 2162.6"/> <path d="m3015 2950.4c15.05 3.3506 29.079 6.7422 43.174 13.085 37.163-171.36 7.3428-27.927 154.29-747.97l-871.17-217.13c123.49 303.71 41.443 179.32 673.7 952.01z"/> <path d="m3237.4 2233.1-151.78 735.5c309.08-101.56 196.34-64.657 494.04-161.77l-342.26-573.73z"/> <path d="m2860.5 2811.4c-5.7986-13.242-18.719-24.904-28.214-35.937-69.654-83.368-19.093-20.102-256.61-324.08 9.0339 207.96 10.775 452.51 12.833 458.38 0.5317 1.5125 2.2297 2.3081 3.3425 3.4619 288.01-110.57 262.72-101.58 268.65-101.82z"/> <path d="m3611.6 2807.6c666.39 226.62 377.66 135.89 769.12 252.63 129.51 36.389 127.25 36.778 144.2 38.335 23.279-19.439 27.035-31.957 34.742-35.476-15.852-12.97-931.41-322.61-946.04-327.57-0.2845 22.758 2.0893 49.941-2.0235 72.08z"/> <path d="m3503.1 3222.5-517.16-260.77c-6.4456 3.4246-6.5198 9.5696-8.7534 16.341l11.659 10.303c-1.2188 44.782-205.98 619.59-213.29 647.96-37.644 118.49-27.317 87.176-47.002 143.36 265.29 96.664 242.06 88.439 244.83 88.524l34.544-871.61c12.986 5.7368 25.717 11.234 37.693 18.929l-64.114 856.55c8.1479 4.9165 13.126 4.9456 22.457 3.9316 8.0054-18.851-6.5149-19.46 69.331-848.74l51.384 27.139c-9.1172 124.89-108.53 822.05-106.77 830.63 5.5164-0.2236-22.425-1.6167 241.64 13.052l-33.04-193.48c-64.015-427.88-84.905-548.57-84.015-639.37 7.4678 4.3435 16.266 8.4236 22.135 14.824 20.684 172.12 8.1204 68.024 56.877 471.11 0 0 45.428 303.76 42.622 344.47 5.5728 3.4868 12.144 2.8428 18.397 0.8081-1.2532-81.265 5.9204-9.3191-83.508-802.86l59.597 31.371c31.64 570.64 27.626 579.83 49.175 744.59 0.4736 3.4744 2.7737 12.322 2.0564 15.413-0.4741 2.0525-2.4275 3.437-3.6389 5.1555 5.7446 3.0293 11.049 5.5801 17.189 7.7273 50.79 17.755 129.38 74.591 136.49 78.37 24.092 16.356 38.909 24.055 67.341 39.617 6.8411 3.7461 16.587 10.587 24.068 12.092l5.2917-6.4827-90.955-275.03c-154.49-510.46-166.35-545.4-177.58-608.23l35.571 20.956 242.84 868.82 14.478 8.6218 9.8826-4.7559 3.0005-2.0894-233.05-850.3c15.781 6.77 55.043 27.909 55.876 28.902 9.6504 11.545 142.39 580.71 190.31 822.43 2.1213-2.8884 12.579-15.441 12.892-15.804 5.3972-6.2681-9.5898 9.7874 99.883-145.82 15.846-22.049 32.85-43.421 47.01-66.616-11.769-16.944-179.94-324.31-248.26-448.71-23-42.795-46.879-84.085-64.946-129.31 11.19 5.1104 34.428 14.383 42.016 23.614 6.021 7.324-32.107-58.115 212.97 426.54 58.991 115.16 54.611 104.09 58.826 114.92 0 0 1.48 3.915 1.4802 3.915 4.571-2.124 2.2957-2.2268 16.891-8.9863 0.7681-0.3555 6.3972-3.9216 6.4971-3.8804-4.366-1.8052-257.2-530.36-259.68-542.86-2.9504-14.874 8.2014-45.597 12.302-60.03 83.547 135.63 249.09 589.03 266.48 599.07 11.705 0.1003 181.16-23.322 201.05-28.21 7.7893-1.9082 37.297-9.6355 37.297-9.6355s-21.306-34.116-31.321-46.112c-122.41-146.78-39.665-44.903-406.41-503.41-45.03-58.502-48.459-61.757-50.238-69.678-1.957-8.7041 0.9192-16.72 5.4482-23.965 6.5786 0.3276-28.068-40.759 495 630.71 3.2971-3.1819 14.3-12.496 14.3-12.496l-501.51-654.2 10.649-47.341c107.99 129.7 55.654 17.064 504.38 701 0 0 2.6331-1.1399 2.637-1.1416 3.3228-1.4434 5.155-7.448 7.1829-10.212 89.12-121.45 121.89-179.36 152.93-207.4-28.519-17.655-53.658-40.804-80.858-60.479-96.03-65.341-1.4468 5.979-507.08-387.97-23.293-19.906-58.513-42.791-74.611-68.206 1.0923-8.0447 3.363-12.347 7.8589-19.044 9.7224-0.5068 36.894 28.09 45.7 35.583 618.05 499.01 590.81 477.15 612.04 488.31l15.702-14.049c-7.293-12.708 0.8516 3.9087-623.57-507.36-7.3811-6.4993-41.381-31.82-43.141-40.124-0.4202-1.9741 1.5664-10.88 2.3738-12.879 0.981-2.4358 1.7063-2.9878 3.2769-4.6982 15.199 2.4812 30.315 12.681 43.681 20.108 111.63 62.026 114.67 81.96 198.51 153.29l428.39 380.08c50.726-80.75 126.34-192.83 127.66-194.63 5.1714-7.0825 12.003-12.918 16.462-20.524-425.81-174.71-275.65-109.41-660.2-285.13-155.95-74.114-147.85-69.162-151.64-75.542 1.4548-7.4307 1.8423-14.552 7.6943-19.918 10.568 1.603-14.23-9.4258 344.33 158.63 222.91 95.37 469.96 200.51 470.29 200.29 14.059-12.16 63.399-86.342 72.039-98.48l-899.7-295.31-104.83 395.83zm-228.7 670.19c-2.5557-0.3789-5.2427-1.6812-7.6743-2.5757l7.6743 2.5757z"/> <path d="m3120.3 2987.5c157.7 81.55 77.031 39.701 365.09 189.45l41.855-154.39c8.8276-30.872 54.116-166.32 50.794-188.22l-3.895-0.5237c-214.23 71.757-445.5 148.51-453.84 153.68z"/> <polygon points="1732.1 1401.3 2109.1 1477.5 2066.9 1360.2"/> <polygon points="1734.8 1410.2 2113.4 1486 2110.3 1480.6 1732.1 1405.1"/> </svg>